/* XPM */
static char *a0az0_e0l7q[] = {
/* columns rows colors chars-per-pixel */
"30 30 76 1 ",
"  c #626262",
". c #696969",
"X c #6D6D6D",
"o c #6E6E6E",
"O c #737373",
"+ c #747474",
"@ c #767676",
"# c #777777",
"$ c #787878",
"% c #797979",
"& c #7A7A7A",
"* c #7B7B7B",
"= c #7C7C7C",
"- c #7D7D7D",
"; c #7E7E7E",
": c #7F7F7F",
"> c #808080",
", c #818181",
"< c #828282",
"1 c #838383",
"2 c #848484",
"3 c #858585",
"4 c #868686",
"5 c #878787",
"6 c #888888",
"7 c #898989",
"8 c #8A8A8A",
"9 c #8B8B8B",
"0 c #8C8C8C",
"q c #8D8D8D",
"w c #8E8E8E",
"e c #8F8F8F",
"r c #909090",
"t c #919191",
"y c #929292",
"u c #939393",
"i c #949494",
"p c #959595",
"a c #969696",
"s c #979797",
"d c #989898",
"f c #999999",
"g c #9A9A9A",
"h c #9B9B9B",
"j c #9C9C9C",
"k c #9D9D9D",
"l c #9E9E9E",
"z c #9F9F9F",
"x c #A0A0A0",
"c c #A1A1A1",
"v c #A2A2A2",
"b c #A3A3A3",
"n c #A4A4A4",
"m c #A5A5A5",
"M c #A6A6A6",
"N c #A7A7A7",
"B c #A8A8A8",
"V c #A9A9A9",
"C c #AAAAAA",
"Z c #ABABAB",
"A c #ACACAC",
"S c #ADADAD",
"D c #AEAEAE",
"F c #AFAFAF",
"G c #B0B0B0",
"H c #B2B2B2",
"J c #B3B3B3",
"K c #B4B4B4",
"L c #B6B6B6",
"P c #B7B7B7",
"I c #B8B8B8",
"U c #B9B9B9",
"Y c #BCBCBC",
"T c #BDBDBD",
"R c #BFBFBF",
"E c #C1C1C1",
/* pixels */
"zee9C9gzt=gp9mgCz&tHgpgzbe9gep",
"Fmz99b9zbtz3=#pFpeCzeebt3pg<<Y",
"bp<g9eget3zpbge3zp==<p9t<gz <z",
"tppbte<p9bF<pmzpp&bbpptm=e9&z=",
"Ybepmb3mppmpp&tme=mez93Cpemb&b",
"p=&bg9gt<zpt3=bbb9&eege3mppFeK",
"<gz39tmt&pH9pgFzgetpgptzt3e=gz",
"3mm<3pOtYzt&m9<ezbp3<pgt<zbge9",
"g3em3gbtg93p93ep3tz99eeepgbgpp",
"F=eFb9ge<F9tgg<z39mteg&<gbt9te",
"9mFUFgp<3tCtpeCbze3=&3gpm3e<et",
"39zpeg9pt39tp3g9egmCgbmttCm9bz",
"z39o=p9bz&geegz<=bHgzbtbtpp99z",
"3epezztt#tUt=bCtgzp9gt9zt<mbm<",
"9zgmb=Cg=eC99<bCt<<F93zz3Fgbm<",
"Fb#9KptggppepbtmHt<m3gbe=zp9mg",
"CptCzeebppte=eEFb9p9ggzmpz3=#t",
"<zp<=3p9ep&t&=zbe9mbmgtp3bpbzt",
"pp&bH9t=ezgpez=eb=tt<.3<bm<pbb",
"me=bp9g=Kpbme3bYm9eztgpegzpp&9",
"bbe=3pCpp<<<ztKp&=zg#peCmgt3=b",
"zgeetgb3g<ee<gz=ggegzt=3gg9pgH",
"tgF9gg39mtbzge99Cm=gbzCb9ptz9=",
"ptC9<gzm<btmgptt3tme93tg3gp<9e",
"gt<p=tt3tegp3ppC&eHp9g<9g<<pp3",
"zgt=bg<gtm9e<epeCFUFpg=e99zp9m",
"eegmt<bmttmmebg3ezpeg3tmmeze9p",
"e9gKetmpbtgp99bz<9o=t9mb=get39",
"9mztezt9zt<mzm=3ep9bzte#tUe=99",
"et<eC93bb9HgmC<3gbCb<Cz=pF93ee"
};
