/* XPM */
static char *akbrt_ggh8r[] = {
/* columns rows colors chars-per-pixel */
"30 30 15 1 ",
"  c #F6F1EF",
". c #F7F1EF",
"X c #F7F1F0",
"o c #F7F1F1",
"O c #F7F2F0",
"+ c #F7F2F1",
"@ c #F8F2F0",
"# c #F8F2F1",
"$ c #F8F3F1",
"% c #F9F3F1",
"& c #F8F2F2",
"* c #F8F3F2",
"= c #F9F3F2",
"- c #F9F3F3",
"; c #F9F4F3",
/* pixels */
"##++#########+++....++++#++###",
"+++#########+#++..++++###++++#",
"#############++...+++######+++",
"#####;#######+++...+#######+++",
"#############++..+++#####+#+++",
"##############+...++########++",
"##############+.+++#########++",
"###########++++..++++#########",
"###############+..+++#######++",
"#############++..+++###+##+++#",
"##############++..++++#####+++",
"######;#######+++++.+#######++",
"##############+...++########+#",
"#############+....+.++#####+##",
"##############++...+++##+##+++",
"############+++.++++##########",
"#########;####+.+++++#########",
"#########;####++...+++####++##",
"##############+...++++#####+##",
"#############+++..+#+#######++",
"############+++..++++#####+++#",
"#############++...++++########",
"#############+++..++#########+",
"######;#####+++...++++###+++#+",
"#############++...+++#####+++#",
"##############+...++########++",
"#############++++++++####+####",
"##############++.+.+++####++++",
"###############+..++######++++",
"#############+++.+.++++##+++#+"
};
