/* XPM */
static char *aave4_rj6og[] = {
/* columns rows colors chars-per-pixel */
"30 30 158 2 ",
"   c #948472",
".  c #998772",
"X  c #9C8B76",
"o  c #9E8E7A",
"O  c #9F907D",
"+  c #A18E77",
"@  c #A08F7A",
"#  c #A3927D",
"$  c #A8957F",
"%  c #A59680",
"&  c #A79680",
"*  c #A79780",
"=  c #A69681",
"-  c #A79681",
";  c #A79781",
":  c #A59583",
">  c #A69582",
",  c #A69682",
"<  c #A79682",
"1  c #A79782",
"2  c #A69683",
"3  c #A79783",
"4  c #A69580",
"5  c #A49584",
"6  c #A69581",
"7  c #A89680",
"8  c #A89780",
"9  c #A99780",
"0  c #A89681",
"q  c #A89781",
"w  c #A99781",
"e  c #AA9781",
"r  c #A89682",
"t  c #A89782",
"y  c #A99782",
"u  c #A89683",
"i  c #A89783",
"p  c #A99783",
"a  c #AA9782",
"s  c #A89781",
"d  c #A79885",
"f  c #A89881",
"g  c #A99881",
"h  c #AA9880",
"j  c #AA9881",
"k  c #AA9981",
"l  c #A89882",
"z  c #A99882",
"x  c #A99982",
"c  c #A89883",
"v  c #A99883",
"b  c #A99983",
"n  c #AA9882",
"m  c #AB9882",
"M  c #AA9982",
"N  c #AA9883",
"B  c #AB9883",
"V  c #AA9983",
"C  c #AB9983",
"Z  c #AA9A83",
"A  c #AB9A83",
"S  c #AC9A83",
"D  c #AC9B83",
"F  c #AD9B83",
"G  c #A99884",
"H  c #A89984",
"J  c #A99984",
"K  c #A99885",
"L  c #AA9984",
"P  c #AB9984",
"I  c #AA9885",
"U  c #AB9985",
"Y  c #AA9A84",
"T  c #AB9A84",
"R  c #AA9A85",
"E  c #AB9A85",
"W  c #AB9B85",
"Q  c #A99986",
"!  c #A99987",
"~  c #AA9986",
"^  c #AA9A86",
"/  c #AB9A86",
"(  c #AA9A87",
")  c #AB9B87",
"_  c #AC9984",
"`  c #AD9A84",
"'  c #AC9B84",
"]  c #AD9B84",
"[  c #AC9B85",
"{  c #AD9B85",
"}  c #AE9B84",
"|  c #AE9B85",
" . c #AC9B87",
".. c #AB9C86",
"X. c #AC9C84",
"o. c #AD9C85",
"O. c #AC9C86",
"+. c #AD9C86",
"@. c #AD9C87",
"#. c #AD9D87",
"$. c #AE9C86",
"%. c #AF9C86",
"&. c #AE9D86",
"*. c #AF9D86",
"=. c #AF9C87",
"-. c #AE9D87",
";. c #AF9E86",
":. c #AE9E87",
">. c #AF9E87",
",. c #AB9A84",
"<. c #AA9A88",
"1. c #AC9B88",
"2. c #AD9B88",
"3. c #AE9B88",
"4. c #AC9C88",
"5. c #AC9D88",
"6. c #AD9D89",
"7. c #AE9D88",
"8. c #AF9D88",
"9. c #AE9D89",
"0. c #AE9E88",
"q. c #AF9E88",
"w. c #AF9F8A",
"e. c #AD9D89",
"r. c #B09C85",
"t. c #B09E85",
"y. c #B09D86",
"u. c #B09F86",
"i. c #B09E87",
"p. c #B19E87",
"a. c #B09F87",
"s. c #B29E87",
"d. c #B29F87",
"f. c #B19E86",
"g. c #B09D88",
"h. c #B09F88",
"j. c #B19F89",
"k. c #B19F8A",
"l. c #B09F8B",
"z. c #B09E88",
"x. c #B0A087",
"c. c #B2A087",
"v. c #B1A088",
"b. c #B1A089",
"n. c #B3A189",
"m. c #B1A08A",
"M. c #B0A08B",
"N. c #B1A18B",
"B. c #B2A08A",
"V. c #B2A18B",
"C. c #B4A28B",
"Z. c #B5A38B",
"A. c #B5A48B",
"S. c #B7A48D",
"D. c #B4A28B",
"F. c #B8A68D",
"G. c #B8A791",
"H. c #B9A891",
/* pixels */
"Y 4 5 # 7.# Y v & o v & # O.v t.v o $ h.v $ y v t.# # y & & ",
"h.O.<.# 4 7.# Y O.& Y # @ o & h.$ $ b.F $ # O.& # y Y # O G.",
"Y & o Y # & Y # & o Y y Y Y $ # v y @ o # Y # & # Y '   # Y ",
"$ v y O.& : o & # O.7.o & 7.Y & v X O.O.y y & 7.o & 4 o O.o ",
"F.Y 4 & O.1.# O.& $ O.& y X & O.# @ t.# ' # # h.y $ 1.1.X ' ",
"& o o 7.y # y & # Y & & # @ O.' ' $ X $ # Y & # t.y & b.# A.",
"# v O.# & & 7.& X & C.# y Y b.Y & $ y y v y $ ' $ @ & o Y v ",
"# O.O.# # v X & G.Y & X 7.# # & Y O.y # # v v & @ O.Y Y & # ",
"Y # $ O.# Y O.& c # # v # # & v # $ Y # 4 & $ $ y & ' v y v ",
"C.X $ t.F # v & # b.# & d Y o v # # 7.y $ ' + @ v ' & # v # ",
"# t.x.C.t.y v @ # & b.: & # b.Y v $ # @ X # Y & O.# $ # $ $ ",
"# # v & $ v # y $ # # & v # v # : Y ' t.Y O.7.$ $ O.t.# O.Y ",
"v # & X @ y # ' O.X Y & $ y Y # o Y b.y Y ' & O.& & $ # # F ",
"# $ & $ ' v $ & X & S.& @ O.h.& Y Y & # Y $ # v y o 7.v t.+ ",
"# Y v O.' X h.Y o $ h.# & @ 1.7.4 O O b.# # F Y # b.& O.O.# ",
"t.O.X # b.& $ y v y y 4 y O.4 Y V.5 # 7.# Y v $ o v & # O.v ",
"O.$ $ b.v $ # O.& 5 5 & @ 4 H.7.' 4 v # v v v O.& Y # o X & ",
"o v v @ o # v # & Y X 5 o o Y ' # # 7.' O.Y & & o Y y Y Y $ ",
"& v X O.C.# & # # v y & $ O.o $ O.o & & @ . # # O.O.o & ' 7.",
"O.$ @ O.y # v o Z.& 5.7.# # Y Z.O.: & Y y v y $ y v & y o # ",
"' ' $ o # y 7.y & o O O O.# A.& o o O.v X v $ t.O.y & # @ ' ",
"Y y # & $ v Y O d # & & # Y v o v v $ v Y & o # y ' # Y G S.",
"y y V.# v v # # 7.$ O.Y Y & $ # O.O.o Y ' Y 7.<.4 & & ' # o ",
"v $ 7.# # Y Y O.o O.$ O.v y & & # & O.# # # & v # Y y # # $ ",
"y & # Y o & & # y # v y # v $ b.X $ b.$ # v # # <.o o 5 Y # ",
"Y v & o O.Y # v $ t.# $ # $ & # t.x.C.t.y v o & # # ' y # h.",
"# : Y 7.& o Y 7.$ $ O.t.# O.v # # Y & $ v # y O.t.$ v $ # y ",
"& # G S.& & ' & ..& & $ # # O.' o & . @ & # t.O.o Y # y # 4 ",
"# 7.Y & # Y & # v & o 7.v O.+ # $ & $ O.v $ # X & Z.# @ & # ",
"& Y o & 7.# O O.O.# Z.& b.O.# # v O.Y ' # b.' @ y h.# # 4 & "
};
